# xmcd CD database file
#
# Track frame offsets:
#	150
#	20401
#	30361
#	42677
#	62813
#	75820
#	89591
#	107419
#	130984
#	145141
#	163352
#	175324
#	192171
#	212733
#	229313
#	241259
#	259408
#	276908
#	288291
#	300726
#	316043
#	328875
#
# Disc length: 4550 seconds
#
# Revision: 0
# Processed by: cddbd v1.5.2PL0 Copyright (c) Steve Scherf et al.
# Submitted via: CDex 1.51
#
DISCID=3e11c416
DTITLE=Various Artist - Rhinokeros ...and a little bite of music
DYEAR=2010
DGENRE=Jazz
TTITLE0=Fun Lovin' Criminals - Top Of The Head
TTITLE1=The Coasters - Three Cool Cats
TTITLE2=Betty Wright - Clean Up Woman
TTITLE3=Kashmere Stage Band - Kash Register
TTITLE4=Palov and Mishkin - Bnc-Money Is Never E-Nuf
TTITLE5=Gil Scott Heron - The Revolution Will Not Be Televised
TTITLE6=Manau - Mais Qui Est La Belette?
TTITLE7=Quantum - Changed My Mind
TTITLE8=Manu Dibango - Wouri
TTITLE9=JJ Gray and Morfo - Country Ghetto
TTITLE10=Jean Knight - Mr. Big Stuff
TTITLE11=Tony Joe White - Polk Salad Annie
TTITLE12=Solomon Burke - Make Do With What You Got
TTITLE13=Son Seals - How Could She Leave Me?
TTITLE14=Squirell Nut Zippers - Put A Lid On It
TTITLE15=Dunkelbunt feat. Boban i Marko Markovic Orkestar - Cinnamon Girl
TTITLE16=Dirty Dozen Brass Band - Junko Partner
TTITLE17=Willie Williams - Armaggeddon Times
TTITLE18=Eric Donaldson - Sweet Jamaica
TTITLE19=Wild Choupitoulas - Meet De Boys On The Waterfront
TTITLE20=Sugahspank! (live and unplugged) - O Mary Don't You Weep
TTITLE21=Xorodia - Pornografia
EXTD=YEAR: 2010
EXTT0=
EXTT1=
EXTT2=
EXTT3=
EXTT4=
EXTT5=
EXTT6=
EXTT7=
EXTT8=
EXTT9=
EXTT10=
EXTT11=
EXTT12=
EXTT13=
EXTT14=
EXTT15=
EXTT16=
EXTT17=
EXTT18=
EXTT19=
EXTT20=
EXTT21=
PLAYORDER=
